<svg xmlns="http://www.w3.org/2000/svg" width="1200" height="800" viewBox="0 0 1200 800">
<rect width="100%" height="100%" fill="#ffffff"/>
<style>text{font-family:Arial,Helvetica,sans-serif;fill:#17212b}.title{font-size:27px;font-weight:700}.subtitle{font-size:14px;fill:#52616d}.panel{font-size:19px;font-weight:700}.axis{font-size:12px;fill:#52616d}.label{font-size:12px}.value{font-size:12px;font-weight:700}.grid{stroke:#d8dee4;stroke-width:1}.zero{stroke:#394957;stroke-width:1.5}.bar{opacity:.9}</style>
<text x="110" y="42" class="title">RTX 3080: research fork vs frozen original</text>
<text x="110" y="68" class="subtitle">Fork throughput change vs original (%) | median of two reversed-order run medians</text>
<text x="110" y="90" class="subtitle">Ternary Bonsai 2 27B | whiskers show the two paired deltas | 7 repetitions per run</text>
<text x="730" y="111" class="axis">Start gates: Combined 65°C/66°C; Decode 65°C; Prefill 65°C</text>
<rect x="110" y="104" width="14" height="14" fill="#286090"/>
<text x="130" y="116" class="axis">PTQ1_0</text>
<rect x="235" y="104" width="14" height="14" fill="#e07a24"/>
<text x="255" y="116" class="axis">PQ2_0</text>
<text x="110" y="152" class="panel">Prefill</text>
<line x1="110" y1="267.0" x2="1162" y2="267.0" class="grid"/>
<text x="100" y="271.0" text-anchor="end" class="axis">-2%</text>
<line x1="110" y1="246.0" x2="1162" y2="246.0" class="grid"/>
<text x="100" y="250.0" text-anchor="end" class="axis">-1%</text>
<line x1="110" y1="225.0" x2="1162" y2="225.0" class="zero"/>
<text x="100" y="229.0" text-anchor="end" class="axis">+0%</text>
<line x1="110" y1="204.0" x2="1162" y2="204.0" class="grid"/>
<text x="100" y="208.0" text-anchor="end" class="axis">+1%</text>
<line x1="110" y1="183.0" x2="1162" y2="183.0" class="grid"/>
<text x="100" y="187.0" text-anchor="end" class="axis">+2%</text>
<rect x="205.5" y="219.5" width="72.0" height="5.5" rx="3" fill="#286090" class="bar"/>
<line x1="241.5" y1="215.2" x2="241.5" y2="223.8" stroke="#17212b" stroke-width="2"/>
<line x1="236.5" y1="215.2" x2="246.5" y2="215.2" stroke="#17212b" stroke-width="2"/>
<line x1="236.5" y1="223.8" x2="246.5" y2="223.8" stroke="#17212b" stroke-width="2"/>
<text x="241.5" y="207.2" text-anchor="middle" class="value">+0.26%</text>
<text x="241.5" y="307.0" text-anchor="middle" class="label">PTQ1_0</text>
<text x="241.5" y="322.0" text-anchor="middle" class="axis">512 tokens</text>
<rect x="468.5" y="218.7" width="72.0" height="6.3" rx="3" fill="#286090" class="bar"/>
<line x1="504.5" y1="218.7" x2="504.5" y2="218.7" stroke="#17212b" stroke-width="2"/>
<line x1="499.5" y1="218.7" x2="509.5" y2="218.7" stroke="#17212b" stroke-width="2"/>
<line x1="499.5" y1="218.7" x2="509.5" y2="218.7" stroke="#17212b" stroke-width="2"/>
<text x="504.5" y="210.7" text-anchor="middle" class="value">+0.30%</text>
<text x="504.5" y="307.0" text-anchor="middle" class="label">PTQ1_0</text>
<text x="504.5" y="322.0" text-anchor="middle" class="axis">4096 tokens</text>
<rect x="731.5" y="223.0" width="72.0" height="2.0" rx="3" fill="#e07a24" class="bar"/>
<line x1="767.5" y1="216.6" x2="767.5" y2="229.4" stroke="#17212b" stroke-width="2"/>
<line x1="762.5" y1="216.6" x2="772.5" y2="216.6" stroke="#17212b" stroke-width="2"/>
<line x1="762.5" y1="229.4" x2="772.5" y2="229.4" stroke="#17212b" stroke-width="2"/>
<text x="767.5" y="208.6" text-anchor="middle" class="value">+0.09%</text>
<text x="767.5" y="307.0" text-anchor="middle" class="label">PQ2_0</text>
<text x="767.5" y="322.0" text-anchor="middle" class="axis">512 tokens</text>
<rect x="994.5" y="218.7" width="72.0" height="6.3" rx="3" fill="#e07a24" class="bar"/>
<line x1="1030.5" y1="218.4" x2="1030.5" y2="218.9" stroke="#17212b" stroke-width="2"/>
<line x1="1025.5" y1="218.4" x2="1035.5" y2="218.4" stroke="#17212b" stroke-width="2"/>
<line x1="1025.5" y1="218.9" x2="1035.5" y2="218.9" stroke="#17212b" stroke-width="2"/>
<text x="1030.5" y="210.4" text-anchor="middle" class="value">+0.30%</text>
<text x="1030.5" y="307.0" text-anchor="middle" class="label">PQ2_0</text>
<text x="1030.5" y="322.0" text-anchor="middle" class="axis">4096 tokens</text>
<text x="110" y="342" class="panel">Decode</text>
<line x1="110" y1="457.0" x2="1162" y2="457.0" class="grid"/>
<text x="100" y="461.0" text-anchor="end" class="axis">-10%</text>
<line x1="110" y1="436.0" x2="1162" y2="436.0" class="grid"/>
<text x="100" y="440.0" text-anchor="end" class="axis">-5%</text>
<line x1="110" y1="415.0" x2="1162" y2="415.0" class="zero"/>
<text x="100" y="419.0" text-anchor="end" class="axis">+0%</text>
<line x1="110" y1="394.0" x2="1162" y2="394.0" class="grid"/>
<text x="100" y="398.0" text-anchor="end" class="axis">+5%</text>
<line x1="110" y1="373.0" x2="1162" y2="373.0" class="grid"/>
<text x="100" y="377.0" text-anchor="end" class="axis">+10%</text>
<rect x="161.7" y="379.2" width="72.0" height="35.8" rx="3" fill="#286090" class="bar"/>
<line x1="197.7" y1="379.2" x2="197.7" y2="379.2" stroke="#17212b" stroke-width="2"/>
<line x1="192.7" y1="379.2" x2="202.7" y2="379.2" stroke="#17212b" stroke-width="2"/>
<line x1="192.7" y1="379.2" x2="202.7" y2="379.2" stroke="#17212b" stroke-width="2"/>
<text x="197.7" y="371.2" text-anchor="middle" class="value">+8.53%</text>
<text x="197.7" y="497.0" text-anchor="middle" class="label">PTQ1_0</text>
<text x="197.7" y="512.0" text-anchor="middle" class="axis">512 tokens</text>
<rect x="337.0" y="379.9" width="72.0" height="35.1" rx="3" fill="#286090" class="bar"/>
<line x1="373.0" y1="379.6" x2="373.0" y2="380.3" stroke="#17212b" stroke-width="2"/>
<line x1="368.0" y1="379.6" x2="378.0" y2="379.6" stroke="#17212b" stroke-width="2"/>
<line x1="368.0" y1="380.3" x2="378.0" y2="380.3" stroke="#17212b" stroke-width="2"/>
<text x="373.0" y="371.6" text-anchor="middle" class="value">+8.35%</text>
<text x="373.0" y="497.0" text-anchor="middle" class="label">PTQ1_0</text>
<text x="373.0" y="512.0" text-anchor="middle" class="axis">2048 tokens</text>
<rect x="512.3" y="382.5" width="72.0" height="32.5" rx="3" fill="#286090" class="bar"/>
<line x1="548.3" y1="382.5" x2="548.3" y2="382.6" stroke="#17212b" stroke-width="2"/>
<line x1="543.3" y1="382.5" x2="553.3" y2="382.5" stroke="#17212b" stroke-width="2"/>
<line x1="543.3" y1="382.6" x2="553.3" y2="382.6" stroke="#17212b" stroke-width="2"/>
<text x="548.3" y="374.5" text-anchor="middle" class="value">+7.73%</text>
<text x="548.3" y="497.0" text-anchor="middle" class="label">PTQ1_0</text>
<text x="548.3" y="512.0" text-anchor="middle" class="axis">4096 tokens</text>
<rect x="687.7" y="409.9" width="72.0" height="5.1" rx="3" fill="#e07a24" class="bar"/>
<line x1="723.7" y1="408.8" x2="723.7" y2="411.1" stroke="#17212b" stroke-width="2"/>
<line x1="718.7" y1="408.8" x2="728.7" y2="408.8" stroke="#17212b" stroke-width="2"/>
<line x1="718.7" y1="411.1" x2="728.7" y2="411.1" stroke="#17212b" stroke-width="2"/>
<text x="723.7" y="400.8" text-anchor="middle" class="value">+1.21%</text>
<text x="723.7" y="497.0" text-anchor="middle" class="label">PQ2_0</text>
<text x="723.7" y="512.0" text-anchor="middle" class="axis">512 tokens</text>
<rect x="863.0" y="409.7" width="72.0" height="5.3" rx="3" fill="#e07a24" class="bar"/>
<line x1="899.0" y1="409.5" x2="899.0" y2="409.9" stroke="#17212b" stroke-width="2"/>
<line x1="894.0" y1="409.5" x2="904.0" y2="409.5" stroke="#17212b" stroke-width="2"/>
<line x1="894.0" y1="409.9" x2="904.0" y2="409.9" stroke="#17212b" stroke-width="2"/>
<text x="899.0" y="401.5" text-anchor="middle" class="value">+1.26%</text>
<text x="899.0" y="497.0" text-anchor="middle" class="label">PQ2_0</text>
<text x="899.0" y="512.0" text-anchor="middle" class="axis">2048 tokens</text>
<rect x="1038.3" y="410.7" width="72.0" height="4.3" rx="3" fill="#e07a24" class="bar"/>
<line x1="1074.3" y1="407.5" x2="1074.3" y2="413.9" stroke="#17212b" stroke-width="2"/>
<line x1="1069.3" y1="407.5" x2="1079.3" y2="407.5" stroke="#17212b" stroke-width="2"/>
<line x1="1069.3" y1="413.9" x2="1079.3" y2="413.9" stroke="#17212b" stroke-width="2"/>
<text x="1074.3" y="399.5" text-anchor="middle" class="value">+1.02%</text>
<text x="1074.3" y="497.0" text-anchor="middle" class="label">PQ2_0</text>
<text x="1074.3" y="512.0" text-anchor="middle" class="axis">4096 tokens</text>
<text x="110" y="532" class="panel">Combined</text>
<line x1="110" y1="647.0" x2="1162" y2="647.0" class="grid"/>
<text x="100" y="651.0" text-anchor="end" class="axis">-8%</text>
<line x1="110" y1="626.0" x2="1162" y2="626.0" class="grid"/>
<text x="100" y="630.0" text-anchor="end" class="axis">-4%</text>
<line x1="110" y1="605.0" x2="1162" y2="605.0" class="zero"/>
<text x="100" y="609.0" text-anchor="end" class="axis">+0%</text>
<line x1="110" y1="584.0" x2="1162" y2="584.0" class="grid"/>
<text x="100" y="588.0" text-anchor="end" class="axis">+4%</text>
<line x1="110" y1="563.0" x2="1162" y2="563.0" class="grid"/>
<text x="100" y="567.0" text-anchor="end" class="axis">+8%</text>
<rect x="205.5" y="569.4" width="72.0" height="35.6" rx="3" fill="#286090" class="bar"/>
<line x1="241.5" y1="569.3" x2="241.5" y2="569.6" stroke="#17212b" stroke-width="2"/>
<line x1="236.5" y1="569.3" x2="246.5" y2="569.3" stroke="#17212b" stroke-width="2"/>
<line x1="236.5" y1="569.6" x2="246.5" y2="569.6" stroke="#17212b" stroke-width="2"/>
<text x="241.5" y="561.3" text-anchor="middle" class="value">+6.78%</text>
<text x="241.5" y="687.0" text-anchor="middle" class="label">PTQ1_0</text>
<text x="241.5" y="702.0" text-anchor="middle" class="axis">512 tokens</text>
<rect x="468.5" y="599.7" width="72.0" height="5.3" rx="3" fill="#286090" class="bar"/>
<line x1="504.5" y1="598.3" x2="504.5" y2="601.0" stroke="#17212b" stroke-width="2"/>
<line x1="499.5" y1="598.3" x2="509.5" y2="598.3" stroke="#17212b" stroke-width="2"/>
<line x1="499.5" y1="601.0" x2="509.5" y2="601.0" stroke="#17212b" stroke-width="2"/>
<text x="504.5" y="590.3" text-anchor="middle" class="value">+1.02%</text>
<text x="504.5" y="687.0" text-anchor="middle" class="label">PTQ1_0</text>
<text x="504.5" y="702.0" text-anchor="middle" class="axis">4096 tokens</text>
<rect x="731.5" y="599.4" width="72.0" height="5.6" rx="3" fill="#e07a24" class="bar"/>
<line x1="767.5" y1="599.2" x2="767.5" y2="599.7" stroke="#17212b" stroke-width="2"/>
<line x1="762.5" y1="599.2" x2="772.5" y2="599.2" stroke="#17212b" stroke-width="2"/>
<line x1="762.5" y1="599.7" x2="772.5" y2="599.7" stroke="#17212b" stroke-width="2"/>
<text x="767.5" y="591.2" text-anchor="middle" class="value">+1.06%</text>
<text x="767.5" y="687.0" text-anchor="middle" class="label">PQ2_0</text>
<text x="767.5" y="702.0" text-anchor="middle" class="axis">512 tokens</text>
<rect x="994.5" y="605.0" width="72.0" height="1.5" rx="3" fill="#e07a24" class="bar"/>
<line x1="1030.5" y1="602.4" x2="1030.5" y2="608.0" stroke="#17212b" stroke-width="2"/>
<line x1="1025.5" y1="602.4" x2="1035.5" y2="602.4" stroke="#17212b" stroke-width="2"/>
<line x1="1025.5" y1="608.0" x2="1035.5" y2="608.0" stroke="#17212b" stroke-width="2"/>
<text x="1030.5" y="625.0" text-anchor="middle" class="value">-0.03%</text>
<text x="1030.5" y="687.0" text-anchor="middle" class="label">PQ2_0</text>
<text x="1030.5" y="702.0" text-anchor="middle" class="axis">4096 tokens</text>
<text x="110" y="780" class="subtitle">Positive values are faster in the fork. Combined mode includes prompt evaluation and 128 generated tokens.</text>
</svg>
